<?xml version="1.0" encoding="utf-8"?>
<!-- Generator: Adobe Illustrator 17.1.0, SVG Export Plug-In . SVG Version: 6.00 Build 0)  -->
<!DOCTYPE svg PUBLIC "-//W3C//DTD SVG 1.1//EN" "http://www.w3.org/Graphics/SVG/1.1/DTD/svg11.dtd">
<svg version="1.1" id="Слой_1" xmlns="http://www.w3.org/2000/svg" xmlns:xlink="http://www.w3.org/1999/xlink" x="0px" y="0px"
	 viewBox="0 0 504.6 137" enable-background="new 0 0 504.6 137" xml:space="preserve">
<path fill="#ECB244" d="M29,8.7v119.5h39.3V8.7H29z M60.7,119.3H33.6V17.7h27.1V119.3z"/>
<linearGradient id="SVGID_1_" gradientUnits="userSpaceOnUse" x1="-17.3639" y1="81.1491" x2="38.9687" y2="81.1491" gradientTransform="matrix(1 0 0 1 17.3326 -12.6667)">
	<stop  offset="3.831418e-003" style="stop-color:#3D1C1F"/>
	<stop  offset="4.247237e-002" style="stop-color:#3E1D20"/>
	<stop  offset="0.564" style="stop-color:#4D2B28"/>
	<stop  offset="1" style="stop-color:#52302B"/>
</linearGradient>
<path fill="url(#SVGID_1_)" d="M56.3,137L0,126.8V10.2c0,0,45.7-8.3,54.9-9.9C55.8,0.1,56.3,0,56.3,0V137z"/>
<polygon fill="#ECB244" points="48.7,71 36.9,70 36.9,66.9 48.7,65.9 "/>
<g>
	<path fill="#52302B" d="M104.1,67.7c-1.3,0-2.7-1.1-3.2-2.5l-9.2-27.5V65c0,1.5-1.1,2.7-2.5,2.7h-4.7c-1.4,0-2.5-1.2-2.5-2.7V30.3
		c0-1.5,1.1-2.7,2.4-2.7h10.7c1.4,0,2.7,1.2,3.2,2.6l7.7,23.9l7.7-23.9c0.4-1.4,1.8-2.6,3.2-2.6h10.7c1.3,0,2.4,1.2,2.4,2.7V65
		c0,1.5-1.1,2.7-2.5,2.7h-4.7c-1.4,0-2.5-1.2-2.5-2.7V37.7l-9.2,27.5c-0.5,1.4-1.9,2.5-3.2,2.5H104.1z"/>
	<path fill="#52302B" d="M168.5,67.7c-1.3,0-2.5-1.2-2.5-2.6V39.2l-13.7,25.9c-0.8,1.4-2.4,2.6-3.8,2.6h-8.7c-1.4,0-2.5-1.2-2.5-2.6
		V30.3c0-1.5,1.1-2.6,2.5-2.6h4.6c1.3,0,2.5,1.1,2.5,2.6v28l14.9-27.9c0.7-1.4,2.3-2.6,3.6-2.6h7.7c1.3,0,2.4,1.2,2.4,2.6v34.8
		c0,1.4-1.1,2.6-2.5,2.6H168.5z"/>
	<path fill="#52302B" d="M205.5,27.7c10,0,15.8,4.8,15.8,15.6s-5.8,15.6-15.8,15.6h-12.5v6.3c0,1.4-1.1,2.6-2.5,2.6h-4.9
		c-1.3,0-2.5-1.2-2.5-2.6V30.3c0-1.5,1.1-2.6,2.4-2.6H205.5z M192.9,35.6v15.3h9.5c5.1,0,8.9-1.1,8.9-7.7s-3.8-7.7-8.9-7.7H192.9z"
		/>
	<path fill="#52302B" d="M244.7,46.8c0.9,0,1.6,0.7,1.6,1.7v3.3c0,1-0.7,1.7-1.6,1.7H225c-0.9,0-1.6-0.7-1.6-1.7v-3.3
		c0-1,0.7-1.7,1.6-1.7H244.7z"/>
	<path fill="#ECB244" d="M254.6,38.6c2-8.9,9.4-11,17-11h14.1c1.3,0,2.5,1.1,2.5,2.6v34.9c0,1.4-1.1,2.6-2.5,2.6h-38
		c-1.3,0-2.5-1.2-2.5-2.6v-2.7c0-1.4,1.1-2.6,2.5-2.6h2L254.6,38.6z M259.8,59.8h18.5V35.6h-7.8c-3.3,0-5.6,2.1-6.3,5.5L259.8,59.8z
		"/>
	<path fill="#ECB244" d="M295.7,30.3c0-1.4,1.1-2.6,2.5-2.6h21.3c6.7,0,13.6,3.1,13.6,11.4c0,2.9-0.9,5.1-3.5,7.4c3.5,2,5,5.5,5,9.3
		c0,8-6.5,12-13.9,12h-22.5c-1.4,0-2.5-1.2-2.5-2.6V30.3z M305.6,35.2v8h14c2.2,0,3.6-1.4,3.6-4c0-2.6-1.4-4-3.6-4H305.6z
		 M305.6,50.6v9.6h14.9c2.8,0,4.2-1.9,4.2-4.8s-1.4-4.8-4.2-4.8H305.6z"/>
	<path fill="#ECB244" d="M375,30.3v2.6c0,1.5-1.1,2.6-2.5,2.6h-22.8v8.1h19.6c1.3,0,2.5,1.2,2.5,2.6v2.6c0,1.4-1.1,2.6-2.5,2.6
		h-19.6v8.2h22.7c1.3,0,2.4,1.1,2.4,2.6v2.7c0,1.4-1.1,2.6-2.5,2.6h-30c-1.4,0-2.5-1.2-2.5-2.7V30.2c0-1.4,1.1-2.6,2.5-2.6h30.2
		C373.9,27.7,375,28.8,375,30.3z"/>
	<path fill="#ECB244" d="M402.2,27.7c10,0,15.8,4.8,15.8,15.6s-5.8,15.6-15.8,15.6h-12.5v6.3c0,1.4-1.1,2.6-2.5,2.6h-4.9
		c-1.3,0-2.5-1.2-2.5-2.6V30.3c0-1.5,1.1-2.6,2.4-2.6H402.2z M389.7,35.6v15.3h9.5c5.1,0,8.9-1.1,8.9-7.7s-3.8-7.7-8.9-7.7H389.7z"
		/>
	<path fill="#ECB244" d="M457.9,30.3v2.6c0,1.5-1.1,2.6-2.5,2.6h-22.8v8.1h19.6c1.3,0,2.5,1.2,2.5,2.6v2.6c0,1.4-1.1,2.6-2.5,2.6
		h-19.6v8.2h22.7c1.3,0,2.4,1.1,2.4,2.6v2.7c0,1.4-1.1,2.6-2.5,2.6h-30c-1.4,0-2.5-1.2-2.5-2.7V30.2c0-1.4,1.1-2.6,2.5-2.6h30.2
		C456.8,27.7,457.9,28.8,457.9,30.3z"/>
	<path fill="#ECB244" d="M493.8,67.7c-1.3,0-2.5-1.2-2.5-2.6V39.2l-13.7,25.9c-0.7,1.4-2.4,2.6-3.8,2.6h-8.7c-1.4,0-2.5-1.2-2.5-2.6
		V30.3c0-1.5,1.1-2.6,2.5-2.6h4.6c1.3,0,2.5,1.1,2.5,2.6v28l14.9-27.9c0.8-1.4,2.3-2.6,3.6-2.6h7.7c1.3,0,2.4,1.2,2.4,2.6v34.8
		c0,1.4-1.1,2.6-2.5,2.6H493.8z M485.2,16.2c0.3-0.9,1-1.4,1.8-1.4h2.1c0.9,0,1.4,0.4,1.4,1.4c0,5.2-3.5,8.3-8.8,8.3
		c-5.2,0-8.8-3.1-8.8-8.3c0-1,0.5-1.4,1.4-1.4h2.1c0.9,0,1.5,0.6,1.8,1.4c0.5,1.3,1.6,2,3.4,2C483.6,18.2,484.7,17.5,485.2,16.2z"/>
</g>
<g>
	<path fill="#52302B" d="M101.8,108.1c-0.8,0-1.6-0.7-1.6-1.6V91.1l-8.7,15.4c-0.5,0.8-1.5,1.6-2.4,1.6h-5.5c-0.9,0-1.6-0.7-1.6-1.6
		V85.8c0-0.9,0.7-1.6,1.6-1.6h2.9c0.9,0,1.6,0.7,1.6,1.5v16.6l9.5-16.6c0.5-0.8,1.5-1.6,2.3-1.6h4.9c0.8,0,1.5,0.7,1.5,1.6v20.7
		c0,0.8-0.7,1.6-1.6,1.6H101.8z"/>
	<path fill="#52302B" d="M128.7,98h-11.4v8.5c0,0.8-0.7,1.5-1.6,1.5h-3.1c-0.9,0-1.6-0.7-1.6-1.6V85.8c0-0.9,0.7-1.6,1.6-1.6h3.1
		c0.9,0,1.6,0.7,1.6,1.6v7.5h11.4v-7.5c0-0.9,0.7-1.6,1.6-1.6h3.1c0.9,0,1.6,0.7,1.6,1.6v20.7c0,0.8-0.7,1.6-1.6,1.6h-3.1
		c-0.8,0-1.6-0.7-1.6-1.5V98z"/>
	<path fill="#52302B" d="M160.3,84.3c0.9,0,1.6,0.7,1.6,1.6v1.6c0,0.9-0.7,1.6-1.6,1.6h-7.4v17.6c0,0.8-0.7,1.5-1.6,1.5h-3.1
		c-0.9,0-1.6-0.7-1.6-1.5V89h-7.4c-0.9,0-1.6-0.7-1.6-1.6v-1.6c0-0.9,0.7-1.6,1.6-1.6H160.3z"/>
	<path fill="#52302B" d="M186.9,85.8v1.6c0,0.9-0.7,1.6-1.6,1.6h-14.4v4.8h12.4c0.8,0,1.6,0.7,1.6,1.6v1.6c0,0.8-0.7,1.6-1.6,1.6
		h-12.4v4.9h14.4c0.8,0,1.5,0.7,1.5,1.5v1.6c0,0.8-0.7,1.6-1.6,1.6h-19.1c-0.9,0-1.6-0.7-1.6-1.6V85.8c0-0.8,0.7-1.5,1.6-1.5h19.1
		C186.2,84.3,186.9,85,186.9,85.8z"/>
	<path fill="#52302B" d="M204.1,84.3c6.3,0,10,2.9,10,9.2c0,6.4-3.7,9.2-10,9.2h-8v3.7c0,0.8-0.7,1.6-1.6,1.6h-3.1
		c-0.8,0-1.6-0.7-1.6-1.6V85.8c0-0.9,0.7-1.6,1.5-1.6H204.1z M196.2,89v9.1h6.1c3.3,0,5.7-0.7,5.7-4.6c0-3.9-2.4-4.6-5.7-4.6H196.2z
		"/>
	<path fill="#52302B" d="M234.9,98h-11.4v8.5c0,0.8-0.7,1.5-1.6,1.5h-3.1c-0.9,0-1.6-0.7-1.6-1.6V85.8c0-0.9,0.7-1.6,1.6-1.6h3.1
		c0.8,0,1.6,0.7,1.6,1.6v7.5h11.4v-7.5c0-0.9,0.7-1.6,1.6-1.6h3.1c0.9,0,1.6,0.7,1.6,1.6v20.7c0,0.8-0.7,1.6-1.6,1.6h-3.1
		c-0.9,0-1.6-0.7-1.6-1.5V98z"/>
	<path fill="#52302B" d="M268.2,85.8v1.6c0,0.9-0.7,1.6-1.6,1.6h-14.4v4.8h12.4c0.8,0,1.6,0.7,1.6,1.6v1.6c0,0.8-0.7,1.6-1.6,1.6
		h-12.4v4.9h14.4c0.8,0,1.5,0.7,1.5,1.5v1.6c0,0.8-0.7,1.6-1.6,1.6h-19.1c-0.9,0-1.6-0.7-1.6-1.6V85.8c0-0.8,0.7-1.5,1.6-1.5h19.1
		C267.5,84.3,268.2,85,268.2,85.8z"/>
	<path fill="#52302B" d="M291.9,84.3c0.9,0,1.6,0.7,1.6,1.6v1.6c0,0.9-0.7,1.6-1.6,1.6h-7.4v17.6c0,0.8-0.7,1.5-1.6,1.5h-3.1
		c-0.8,0-1.6-0.7-1.6-1.5V89h-7.4c-0.9,0-1.6-0.7-1.6-1.6v-1.6c0-0.9,0.7-1.6,1.6-1.6H291.9z"/>
	<path fill="#52302B" d="M306.3,95.6c0.6,0,1,0.4,1,1v2c0,0.6-0.4,1-1,1h-12.5c-0.6,0-1-0.4-1-1v-2c0-0.6,0.4-1,1-1H306.3z"/>
	<path fill="#52302B" d="M324.4,108.1c-0.9,0-1.7-0.7-2-1.5l-5.8-16.3v16.2c0,0.9-0.7,1.6-1.6,1.6h-3c-0.9,0-1.6-0.7-1.6-1.6V85.9
		c0-0.9,0.7-1.6,1.5-1.6h6.8c0.9,0,1.7,0.7,2,1.6l4.9,14.2l4.9-14.2c0.3-0.8,1.1-1.6,2-1.6h6.8c0.8,0,1.5,0.7,1.5,1.6v20.6
		c0,0.9-0.7,1.6-1.6,1.6h-3c-0.9,0-1.6-0.7-1.6-1.6V90.3l-5.8,16.3c-0.3,0.8-1.2,1.5-2,1.5H324.4z"/>
	<path fill="#52302B" d="M347.7,90.7c1.4-5.3,6.2-6.5,11-6.5h8.9c0.8,0,1.4,0.7,1.4,1.5v20.7c0,0.8-0.7,1.5-1.6,1.5h-3.1
		c-0.9,0-1.6-0.7-1.6-1.6v-4.2h-11.8l-1.1,4.2c-0.2,0.9-1.1,1.6-2,1.6h-3.3c-0.9,0-1.4-0.7-1.2-1.5L347.7,90.7z M352.3,97.6h10.6V89
		h-4.7c-2.1,0-3.8,1.3-4.4,3.3L352.3,97.6z"/>
	<path fill="#52302B" d="M373.9,85.8c0-0.9,0.7-1.6,1.6-1.6h16c0.9,0,1.6,0.7,1.6,1.6v1.6c0,0.9-0.7,1.6-1.6,1.6h-11.4v17.6
		c0,0.8-0.7,1.5-1.6,1.5h-3.1c-0.8,0-1.6-0.7-1.6-1.5V85.8z"/>
	<path fill="#52302B" d="M395.3,90.7c1.4-5.3,6.2-6.5,11-6.5h8.9c0.8,0,1.4,0.7,1.4,1.5v20.7c0,0.8-0.7,1.5-1.6,1.5h-3.1
		c-0.9,0-1.6-0.7-1.6-1.6v-4.2h-11.8l-1.1,4.2c-0.2,0.9-1.1,1.6-2,1.6h-3.3c-0.9,0-1.4-0.7-1.2-1.5L395.3,90.7z M399.8,97.6h10.6V89
		h-4.7c-2.1,0-3.8,1.3-4.4,3.3L399.8,97.6z"/>
	<path fill="#52302B" d="M430,88.8c-1.5,0-3,0.5-3.7,2c-0.5,1.1-1.3,1.6-2.2,1.6h-2c-0.4,0-1.7-0.3-1.7-1.8c0-4,4.9-6.5,9-6.5h5.1
		c5.2,0,9.7,1.6,9.7,7.3c0,1.8-0.7,3.6-2.3,4.8c1.9,1.2,2.6,2.8,2.6,4.8c0,5.3-3.6,7.2-9.3,7.2h-6.4c-4.1,0-9-2.5-9-6.6
		c0-1.5,1.3-1.8,1.7-1.8h2c1,0,1.7,0.4,2.4,1.8c0.6,1.2,2,1.9,3.6,1.9h5.2c2.3,0,3.6-0.6,3.6-2.5c0-1.9-1.3-2.5-3.6-2.5h-4.3
		c-0.8,0-1.6-0.7-1.6-1.6v-1.4c0-0.8,0.7-1.6,1.5-1.6h3.7c2.6,0,3.9-0.7,3.9-2.5c0-1.9-1.3-2.5-3.9-2.5H430z"/>
	<path fill="#52302B" d="M467.7,108.1c-0.8,0-1.6-0.7-1.6-1.6V91.1l-8.7,15.4c-0.5,0.8-1.5,1.6-2.4,1.6h-5.5c-0.9,0-1.6-0.7-1.6-1.6
		V85.8c0-0.9,0.7-1.6,1.6-1.6h2.9c0.8,0,1.6,0.7,1.6,1.5v16.6l9.5-16.6c0.5-0.8,1.5-1.6,2.3-1.6h4.9c0.8,0,1.5,0.7,1.5,1.6v20.7
		c0,0.8-0.7,1.6-1.6,1.6H467.7z"/>
	<path fill="#52302B" d="M494.6,98h-11.4v8.5c0,0.8-0.7,1.5-1.6,1.5h-3.1c-0.9,0-1.6-0.7-1.6-1.6V85.8c0-0.9,0.7-1.6,1.6-1.6h3.1
		c0.8,0,1.6,0.7,1.6,1.6v7.5h11.4v-7.5c0-0.9,0.7-1.6,1.6-1.6h3.1c0.9,0,1.6,0.7,1.6,1.6v20.7c0,0.8-0.7,1.6-1.6,1.6h-3.1
		c-0.9,0-1.6-0.7-1.6-1.5V98z"/>
</g>
</svg>
